<svg width="1920" height="1702" viewBox="0 0 1920 1702" fill="none" xmlns="http://www.w3.org/2000/svg">
<g opacity="0.12">
<path d="M2192.19 1519.04C1999.85 1576.95 1836.69 1600.8 1663.45 1487.23C1584.66 1435.57 1518.43 1359.21 1423.32 1337.18C1297.05 1307.94 1157.18 1389.75 1051.73 1447.21C993.617 1478.82 933.534 1538.55 870.276 1559.82C822.846 1575.79 783.782 1561.33 738.015 1543.74C613.162 1495.8 508.371 1435.82 373.135 1418.73C88.9529 1382.8 -357.431 1410.47 -502.446 1701C-636.875 1564 -711.928 1324.12 -559.453 1166.16C-483.191 1087.22 -218.415 1063.88 -281.371 912.217C-302.944 860.3 -355.415 824.714 -379.408 773.402C-406.979 714.378 -396.243 656.06 -388.279 593.457C-359.045 363.562 -441.254 193.143 -567.619 1.00046C-408.038 47.8768 -305.918 131.549 -167.305 212.7C-61.4549 274.799 27.0054 265.323 136.384 212.7C265.924 150.753 372.127 2.66359 523.643 3.21803C646.127 3.77247 767.955 68.3914 877.736 115.469C987.518 162.547 1130.16 238.356 1255.42 214.363C1370.54 192.387 1438.49 77.4137 1551.65 40.7191C1788.15 -35.8457 2040.17 112.143 2277.07 125.752C2273.85 266.482 2224.15 349.902 2134.38 454.139C2007.05 602.076 1810.02 773.301 2027.52 935.604C2118.25 1003.15 2350.11 1077.39 2247.59 1227.15C2221.63 1265.15 2169.71 1279.52 2141.89 1314.55C2076.41 1396.96 2132.06 1446.41 2192.19 1519.04Z" stroke="black" stroke-width="1.5" stroke-linecap="round" stroke-linejoin="round"/>
<path d="M2275.26 190.673C2056.65 172.275 1819.95 78.6736 1606.79 169.805C1500.19 215.17 1437.68 293.196 1315.6 298.892C1186.87 304.89 1059.45 254.737 939.535 214.716C832.022 178.828 716.948 133.01 601.823 135.127C445.065 138 351.564 268.246 216.278 329.286C108.412 377.977 24.74 366.636 -76.6239 310.939C-211.205 236.844 -311.863 177.82 -470.234 154.432" stroke="black" stroke-width="1.5" stroke-linecap="round" stroke-linejoin="round"/>
<path d="M2267.65 244.606C2055.5 220.26 1844.65 183.415 1639.81 263.558C1530.03 306.503 1453.56 361.595 1331.13 358.621C1201.74 355.396 1076.13 315.929 952.087 282.712C846.54 254.435 736.204 223.486 625.868 232.307C487.053 243.648 405.952 345.063 284.225 400.457C180.845 447.485 95.9128 433.926 -3.08205 386.042C-145.929 316.836 -249.108 281.049 -412.066 281.704" stroke="black" stroke-width="1.5" stroke-linecap="round" stroke-linejoin="round"/>
<path d="M2250.61 293.852C2023.79 260.333 1833.66 272.43 1617.57 347.18C1501.19 387.504 1415.96 413.261 1291.81 399.903C1168.77 386.647 1048.81 355.346 927.736 330.899C829.699 311.09 728.536 293.751 628.483 306.907C501.967 323.54 425.856 412.303 311.186 457.365C211.384 496.63 132.854 475.259 38.0928 435.993C-110.198 374.55 -222.802 363.814 -383.744 387.907" stroke="black" stroke-width="1.5" stroke-linecap="round" stroke-linejoin="round"/>
<path d="M2220.72 345.415C2086.9 320.919 1958.01 307.914 1824.49 340.929C1737.74 362.351 1655.48 399.147 1569.49 423.341C1334.71 489.321 1113.33 398.844 878.493 371.223C788.723 360.688 698.045 357.21 608.929 374.801C498.039 396.677 422.079 472.536 317.287 506.66C222.224 537.609 146.92 506.207 57.9048 474.149C-96.0816 418.704 -220.077 433.825 -377.138 477.778" stroke="black" stroke-width="1.5" stroke-linecap="round" stroke-linejoin="round"/>
<path d="M2174.45 406.758C2034.48 375.255 1906.8 358.924 1769.4 405.951C1678.67 437.051 1595.96 484.381 1500.39 502.426C1272.56 545.371 1047.7 416.738 816.85 416.436C736.095 416.332 655.729 427.634 578.134 450.005C479.794 478.232 394.005 549.655 294.355 566.339C206.197 581.057 137.193 535.643 56.6967 509.432C-98.2474 459.028 -234.088 499.351 -383.236 557.014" stroke="black" stroke-width="1.5" stroke-linecap="round" stroke-linejoin="round"/>
<path d="M2108.27 483.877C1969.5 445.317 1844.4 420.468 1708.76 480.5C1626.85 516.791 1556.03 569.716 1464.9 582.317C1324.32 601.471 1199.12 531.257 1066.7 497.738C964.583 471.83 858.682 459.632 754.193 476.82C670.723 490.53 593.402 524.402 515.93 556.813C439.265 588.87 346.974 649.053 261.034 643.156C189.913 638.115 130.737 588.719 67.0258 562.256C-93.866 495.369 -244.072 559.988 -393.27 630.152" stroke="black" stroke-width="1.5" stroke-linecap="round" stroke-linejoin="round"/>
<path d="M2018.65 583.931C1890.72 539.373 1767.99 499.603 1644.7 574.757C1576.95 616.089 1526.3 672.492 1441.97 677.179C1300.08 685.043 1165.75 582.923 1029.81 551.621C920.584 526.419 809.34 525.31 703.39 564.676C567.297 615.333 381.606 817.053 228.023 753.643C163.606 727.08 118.745 662.512 58.0077 628.539C-96.0795 542.347 -257.828 627.833 -398.609 701.727" stroke="black" stroke-width="1.5" stroke-linecap="round" stroke-linejoin="round"/>
<path d="M1932.11 718.411C1822.37 684.237 1717.18 651.222 1605.89 693.965C1546.16 716.899 1502.66 749.41 1435.32 745.68C1305.68 738.422 1178.25 661.403 1049.37 638.62C937.62 618.862 826.125 615.132 716.394 647.542C573.346 689.832 378.683 883.84 227.721 841.752C163.102 823.707 114.411 763.12 56.3446 732.373C-93.1557 653.641 -234.793 705.659 -380.866 769.975" stroke="black" stroke-width="1.5" stroke-linecap="round" stroke-linejoin="round"/>
<path d="M1929.73 821.891C1829.43 798.755 1730.79 776.779 1627.66 790.136C1566.87 797.949 1515.56 810.55 1453.61 801.125C1219.23 765.488 1007.08 657.522 762.714 703.995C680.756 719.62 604.544 754.399 530.046 790.489C460.134 824.563 374.598 891.299 294.252 893.063C216.73 894.827 145.911 834.593 77.5121 806.468C-68.0567 746.536 -196.74 777.989 -341.2 830.561" stroke="black" stroke-width="1.5" stroke-linecap="round" stroke-linejoin="round"/>
<path d="M1985.68 901.883C1824.84 883.082 1658.7 883.385 1500.03 850.117C1281.42 804.249 1055.31 731.414 829.143 744.268C749.705 748.754 676.215 769.873 603.28 801.175C524.144 835.248 447.277 902.942 362.698 917.509C283.966 931.017 208.107 894.423 134.113 873.001C-18.7648 828.796 -143.819 841.196 -297.654 885.955" stroke="black" stroke-width="1.5" stroke-linecap="round" stroke-linejoin="round"/>
<path d="M2074.19 966.503C1677.26 970.787 1295.44 819.22 901.326 777.031C828.844 769.269 761.856 775.519 693.104 800.671C603.434 833.485 535.841 905.815 447.179 935.756C359.626 965.394 269.906 945.837 181.294 931.32C22.8724 905.311 -110.297 904.253 -269.525 938.377" stroke="black" stroke-width="1.5" stroke-linecap="round" stroke-linejoin="round"/>
<path d="M2169.46 1023.66C2042.59 1041.51 1926.3 1045.39 1803.42 1005.01C1720.6 977.794 1642.73 937.47 1557.34 918.014C1451.49 893.82 1340.6 902.892 1233.64 884.948C1141.45 869.827 1055.66 837.467 965.994 813.222C903.996 796.387 847.14 787.718 784.033 805.208C679.242 834.342 614.724 921.744 517.594 964.235C424.295 1005.06 321.267 1003.65 221.718 995.99C52.3078 982.935 -105.56 969.376 -275.625 990.95" stroke="black" stroke-width="1.5" stroke-linecap="round" stroke-linejoin="round"/>
<path d="M2245.62 1081.32C2102.82 1119.53 1981.6 1120.39 1844.25 1062.42C1764.46 1028.75 1690.87 979.608 1606.59 956.573C1487.43 923.91 1367.52 957.732 1246.65 939.989C1161.82 927.59 1088.03 894.625 1009.75 862.568C806.315 779.753 726.927 932.832 553.182 1014.84C285.382 1141.26 -50.8678 1041.56 -334.697 1045.39" stroke="black" stroke-width="1.5" stroke-linecap="round" stroke-linejoin="round"/>
<path d="M2277.07 1147.51C2139.06 1202.65 2026.26 1209.5 1891.07 1141.96C1796.36 1094.68 1710.88 1020.99 1608.5 989.941C1493.18 954.658 1395.49 1005.06 1279.71 1005.42C1182.18 1005.77 1106.12 972.148 1018.42 935.101C954.755 908.235 903.947 886.813 834.993 909.898C723.145 947.248 641.54 1057.94 532.263 1106.88C221.669 1245.95 -144.975 1145.54 -466.053 1105.02" stroke="black" stroke-width="1.5" stroke-linecap="round" stroke-linejoin="round"/>
<path d="M2260.03 1209.5C2106.6 1267.37 1988.25 1269.99 1842.33 1189.34C1752.86 1140.15 1672.21 1069.08 1572.26 1040.75C1450.99 1006.37 1340.4 1069.83 1219.07 1074.17C1141.35 1076.89 1072.9 1059.35 1000.06 1035.25C804.595 970.635 701.971 1100.78 519.153 1157.28C178.266 1262.78 -198.812 1173.26 -545.596 1152.65" stroke="black" stroke-width="1.5" stroke-linecap="round" stroke-linejoin="round"/>
<path d="M2219.51 1254.87C2061.69 1310.67 1939.36 1316.11 1792.38 1228.3C1706.19 1176.79 1629.52 1102.29 1531.34 1073.41C1409.16 1037.32 1299.98 1104.91 1180.77 1123.26C1111.06 1134.05 1047.75 1130.27 979.152 1118.22C799.611 1087.02 676.724 1173.11 501.668 1207.54C139.41 1278.71 -236.408 1209.25 -602.195 1225.68" stroke="black" stroke-width="1.5" stroke-linecap="round" stroke-linejoin="round"/>
<path d="M2170.46 1291.81C2008.77 1345.6 1882 1353.51 1734.92 1258.25C1652.05 1204.61 1579.97 1126.69 1483.7 1097C1311.11 1043.47 1134.45 1193.32 956.014 1192.27C794.063 1191.31 650.763 1234.45 489.871 1253.36C116.019 1297.31 -263.73 1247.21 -635.112 1316.66" stroke="black" stroke-width="1.5" stroke-linecap="round" stroke-linejoin="round"/>
<path d="M2128.03 1328.31C1973.13 1376.9 1840.26 1393.83 1698.83 1301.49C1615.61 1247.16 1545.9 1159.85 1450.23 1126.03C1268.07 1061.67 1105.87 1232.34 932.526 1264.8C782.774 1292.87 611.398 1288.59 460.083 1296.85C94.7497 1317.02 -294.778 1286.77 -642.822 1417.22" stroke="black" stroke-width="1.5" stroke-linecap="round" stroke-linejoin="round"/>
<path d="M2107.41 1373.17C1948.08 1421.2 1807.45 1442.27 1662.84 1344.94C1581.23 1290 1513.79 1200.38 1418.68 1167.11C1226.18 1099.82 1075.92 1287.38 909.589 1345.04C867.45 1359.66 830.756 1356.64 786.349 1352.7C672.031 1342.62 561.292 1337.58 446.168 1337.58C97.3167 1338.74 -319.581 1325.99 -624.076 1520.05" stroke="black" stroke-width="1.5" stroke-linecap="round" stroke-linejoin="round"/>
<path d="M2123.74 1433.9C1947.32 1486.33 1797.37 1507.9 1639.85 1397.31C1561.02 1341.87 1494.69 1258.95 1398.87 1232.03C1195.64 1174.98 1054.51 1371.91 888.371 1440.81C845.981 1458.4 810.95 1450.89 766.845 1440.81C657.669 1415.91 555.801 1386.68 442.693 1379.37C116.171 1358.55 -337.824 1362.43 -577.7 1617.33" stroke="black" stroke-width="1.5" stroke-linecap="round" stroke-linejoin="round"/>
<path d="M-327.294 1519.54C-414.796 1398.57 -336.165 1251.79 -229.005 1179.51C-112.822 1101.23 58.0502 1052.34 -8.63529 874.918C-33.5856 808.635 -83.94 758.987 -95.6339 685.9C-103.9 634.437 -92.8615 582.016 -88.2747 530.805C-72.246 353.582 -196.09 241.985 -307.535 115.369" stroke="black" stroke-width="1.5" stroke-linecap="round" stroke-linejoin="round"/>
<path d="M-235.655 1479.27C-286.06 1377.15 -226.784 1261.82 -140.844 1202.04C-59.2887 1145.34 38.6981 1132.54 80.4836 1024.32C100.645 971.543 87.3892 932.48 65.0095 882.68C37.2364 821.085 -9.38806 776.83 -23.6526 708.028C-37.0099 643.761 -18.6121 582.57 -15.9407 518.304C-9.18648 367.09 -150.168 260.887 -245.181 159.372" stroke="black" stroke-width="1.5" stroke-linecap="round" stroke-linejoin="round"/>
<path d="M-133.534 1448.47C-194.272 1177.09 300.552 1158.44 131.292 895.633C93.9426 837.668 44.1931 792.556 30.0294 721.586C17.8315 660.596 38.1949 602.832 42.6809 542.75C53.7195 394.409 -94.4704 296.775 -188.374 199.998" stroke="black" stroke-width="1.5" stroke-linecap="round" stroke-linejoin="round"/>
<path d="M-24.6566 1426.7C-16.7935 1322.11 22.8245 1263.79 102.666 1201.79C210.481 1117.97 301.21 1034.3 193.949 910.403C155.742 866.349 106.496 828.848 86.0825 771.79C59.4688 697.594 92.131 629.85 95.5081 556.007C101.909 416.033 -43.861 324.499 -133.229 232.712" stroke="black" stroke-width="1.5" stroke-linecap="round" stroke-linejoin="round"/>
<path d="M87.2917 1413.69C121.617 1324.73 139.511 1267.52 210.43 1201.99C312.046 1108.04 372.179 1025.58 251.561 924.011C208.162 887.367 153.927 855.915 130.589 800.873C98.5319 725.82 136.94 654.044 143.09 579.092C154.784 436.547 15.4145 350.406 -75.7172 253.981" stroke="black" stroke-width="1.5" stroke-linecap="round" stroke-linejoin="round"/>
<path d="M198.631 1408.96C243.995 1341.21 253.169 1263.69 310.126 1202.3C411.843 1092.67 443.447 1018.32 305.64 933.135C245.81 896.138 175.294 870.18 158.711 792.254C144.194 723.905 185.324 651.524 192.028 585.343C205.99 448.04 71.8633 354.64 -12.2622 259.375" stroke="black" stroke-width="1.5" stroke-linecap="round" stroke-linejoin="round"/>
<path d="M305.542 1412.23C362.096 1348.07 376.108 1254.21 418.7 1180.67C491.233 1054.66 505.043 989.134 359.021 934.848C310.28 916.652 240.721 899.565 211.134 850.571C167.735 778.593 218.241 684.689 235.681 612.459C274.391 451.769 158.864 368.198 61.4314 245.261" stroke="black" stroke-width="1.5" stroke-linecap="round" stroke-linejoin="round"/>
<path d="M404.436 1423.07C477.221 1350.44 483.572 1247.86 517.544 1155.92C535.942 1106.33 589.371 1047.1 556.608 991.756C528.734 944.628 458.067 935.807 411.19 925.827C363.003 915.746 284.372 908.992 251.811 863.275C201.96 793.313 265.924 683.582 286.842 613.872C339.918 436.951 251.559 357.766 149.237 207.257" stroke="black" stroke-width="1.5" stroke-linecap="round" stroke-linejoin="round"/>
<path d="M491.487 1441.06C574.101 1346.1 579.544 1262.23 605.956 1145.44C620.17 1082.43 672.743 999.568 621.935 941.149C589.02 903.295 506.357 906.873 463.916 903.647C407.664 899.363 325.908 905.26 291.128 851.831C246.47 783.231 321.371 664.326 346.07 597.54C364.366 548.345 389.518 493 388.964 438.966C388.006 337.401 301.008 224.696 254.988 142.133" stroke="black" stroke-width="1.5" stroke-linecap="round" stroke-linejoin="round"/>
<path d="M563.308 1465.96C674.198 1340.25 675.962 1233.3 700.106 1075.78C707.062 1030.72 743.454 949.769 713.967 905.765C674.349 846.54 577.572 862.115 518.447 864.434C468.043 866.45 364.663 886.561 332.504 830.461C304.429 781.568 382.909 638.923 397.476 603.337C428.979 527.73 477.67 445.671 482.458 361.848C488.658 253.226 423.636 140.672 382.556 45.4075" stroke="black" stroke-width="1.5" stroke-linecap="round" stroke-linejoin="round"/>
<path d="M655.348 1507.65C743.103 1351.39 748.698 1211.87 766.541 1038.38C771.077 994.477 805.201 906.168 775.11 864.382C735.996 810.147 642.092 826.074 586.344 828.393C538.006 830.409 436.592 849.613 404.887 796.638C376.358 749.207 447.378 613.014 461.492 577.982C492.541 501.065 542.794 418.401 549.851 333.872C559.377 220.512 493.398 109.319 448.084 11.2822" stroke="black" stroke-width="1.5" stroke-linecap="round" stroke-linejoin="round"/>
<path d="M724.612 1538.04C793.062 1364.2 806.57 1201.19 823.002 1017.41C826.933 973.61 858.84 882.175 828.698 840.591C790.793 788.423 701.829 800.873 647.241 800.721C598.348 800.721 501.823 814.683 470.824 762.011C441.741 712.866 505.503 590.634 521.531 552.68C553.034 478.131 607.975 399.5 619.619 317.945C635.849 204.736 570.474 98.987 522.943 2.05873" stroke="black" stroke-width="1.5" stroke-linecap="round" stroke-linejoin="round"/>
<path d="M775.711 1557.9C829.14 1375.79 853.384 1197.96 871.832 1009.8C876.217 964.789 906.36 874.817 876.873 831.62C840.38 778.594 758.321 786.709 703.43 780.812C652.219 775.267 563.003 783.08 532.508 728.038C503.374 675.466 559.172 570.927 579.182 528.536C612.197 458.575 673.792 388.26 691.635 312.149C717.241 202.922 653.529 105.943 605.242 13.2491" stroke="black" stroke-width="1.5" stroke-linecap="round" stroke-linejoin="round"/>
<path d="M813.779 1567.73C855.665 1383.75 892.712 1200.08 915.848 1012.52C937.069 840.441 930.113 805.41 756.72 767.858C703.392 756.366 620.88 753.694 592.099 696.233C563.822 639.729 610.295 553.436 636.052 506.762C671.839 442.092 740.692 384.127 765.793 314.669C802.79 212.398 741.347 126.458 692.958 39.3588" stroke="black" stroke-width="1.5" stroke-linecap="round" stroke-linejoin="round"/>
<path d="M843.759 1568.18C876.018 1390.15 924.407 1215.35 954.901 1037.27C965.285 976.382 995.225 889.887 957.17 833.535C926.221 787.717 858.024 777.082 809.837 761.255C636.293 704.247 598.54 601.724 724.149 448.745C758.021 407.464 813.063 374.802 838.92 328.581C892.601 232.812 835.795 161.136 784.634 75.0448" stroke="black" stroke-width="1.5" stroke-linecap="round" stroke-linejoin="round"/>
<path d="M870.524 1559.82C896.23 1383.4 956.212 1222.91 996.536 1050.48C1034.14 887.871 1012.46 831.519 865.231 760.297C717.041 688.621 645.215 577.479 787.054 441.689C825.311 404.994 884.99 382.715 917.148 341.635C983.581 256.855 930.909 197.528 877.984 115.469" stroke="black" stroke-width="1.5" stroke-linecap="round" stroke-linejoin="round"/>
<path d="M899.06 1543.28C918.97 1370.65 983.236 1239.85 1036.51 1079.21C1091.61 912.872 1055.42 855.108 924.414 764.48C810.701 685.849 694.972 571.481 841.952 448.947C886.661 411.648 947.802 397.938 991.553 361.192C1077.24 289.164 1028.3 237.096 970.887 155.037" stroke="black" stroke-width="1.5" stroke-linecap="round" stroke-linejoin="round"/>
<path d="M934.292 1519.19C943.415 1409.71 957.982 1321.1 1009.29 1223.87C1033.34 1178.5 1065.04 1137.17 1085.91 1089.74C1153.15 936.864 1101.33 869.675 990.14 772.847C896.64 691.293 763.622 556.51 913.676 451.921C962.67 417.746 1025.17 410.488 1073.61 377.826C1167.31 314.669 1124.02 269.708 1061.77 188.657" stroke="black" stroke-width="1.5" stroke-linecap="round" stroke-linejoin="round"/>
<path d="M981.217 1488.09C986.258 1380.22 994.827 1298.67 1056.22 1208.8C1083.19 1169.38 1120.33 1137.37 1143.77 1095.24C1220.19 957.884 1158.04 882.377 1064.94 784.794C984.998 700.971 850.619 556.662 992.861 462.204C1043.52 428.533 1105.92 422.535 1158.64 394.258C1261.97 338.813 1212.17 286.493 1148.96 210.986" stroke="black" stroke-width="1.5" stroke-linecap="round" stroke-linejoin="round"/>
<path d="M1044.78 1450.69C1044.78 1345.34 1046.09 1267.87 1116.6 1186.42C1145.79 1152.75 1186.92 1129.86 1212.88 1092.82C1295.94 974.315 1227.24 892.005 1150.68 799.613C1081.62 716.344 952.988 570.423 1080.56 480.753C1130.26 445.822 1194.33 438.866 1246.29 409.027C1352.8 347.936 1298.26 293.096 1230.16 216.985" stroke="black" stroke-width="1.5" stroke-linecap="round" stroke-linejoin="round"/>
<path d="M1129.86 1407.49C1123.91 1310.26 1115.59 1231.08 1189.33 1159.15C1224.16 1125.23 1271.04 1109.8 1302.04 1070.84C1377.09 976.483 1310.81 894.727 1249.57 816.498C1180.21 727.837 1071.18 592.5 1189.08 500.662C1235.35 464.623 1297.35 451.921 1343.72 416.083C1443.52 338.914 1372.45 274.95 1303.4 201.309" stroke="black" stroke-width="1.5" stroke-linecap="round" stroke-linejoin="round"/>
<path d="M1241.45 1359.15C1229.56 1271.05 1209.65 1185.71 1283.04 1120.44C1320.74 1086.92 1376.23 1081.07 1408.75 1039.79C1469.23 962.419 1412.22 899.413 1364.34 835.551C1308.89 761.355 1227.34 662.209 1273.16 565.381C1304.81 498.595 1396.19 470.368 1442.16 415.377C1527.85 312.904 1441.16 236.894 1367.16 158.918" stroke="black" stroke-width="1.5" stroke-linecap="round" stroke-linejoin="round"/>
<path d="M1328.56 1334.46C1312.68 1250.74 1288.23 1169.08 1359.25 1105.77C1396.05 1073.01 1450.64 1068.72 1482.64 1028.2C1542.52 952.591 1484.86 906.975 1434.56 850.622C1366.91 775.015 1320.95 682.724 1366.06 581.663C1400.03 505.552 1476.95 459.583 1520.25 390.125C1593.63 272.833 1515.96 188.103 1440.35 96.9208" stroke="black" stroke-width="1.5" stroke-linecap="round" stroke-linejoin="round"/>
<path d="M1401.85 1333.35C1382.69 1251.64 1355.37 1174.32 1425.79 1111.92C1462.89 1079.11 1518.33 1075.78 1550.69 1035.1C1613.39 956.372 1546.26 917.56 1493.18 863.728C1412.99 783.08 1398.01 688.723 1443.28 582.671C1478.06 501.217 1549.78 444.058 1590.31 366.284C1654.83 242.49 1588.39 155.239 1514.2 54.8831" stroke="black" stroke-width="1.5" stroke-linecap="round" stroke-linejoin="round"/>
<path d="M1465.1 1350.69C1442.17 1265 1414.7 1194.43 1489.8 1131.33C1525.08 1101.54 1574.83 1096.8 1607.55 1061.57C1684.87 978.347 1602.1 931.421 1543.18 875.371C1437.33 774.561 1462.13 647.491 1532.34 527.276C1567.63 466.79 1618.03 415.428 1649.94 352.976C1714.91 226.964 1660.42 139.26 1588.64 30.638" stroke="black" stroke-width="1.5" stroke-linecap="round" stroke-linejoin="round"/>
<path d="M1522.06 1381.64C1496.1 1295.14 1469.14 1228.81 1545.25 1165.35C1582.35 1134.4 1634.01 1129.26 1668.39 1092.97C1754.07 1002.54 1648.78 945.433 1586.88 885.603C1469.34 771.789 1510.92 636.805 1590.71 507.567C1627.51 447.888 1677.01 395.971 1709.57 333.57C1772.12 213.607 1727.66 128.675 1663.7 20.6577" stroke="black" stroke-width="1.5" stroke-linecap="round" stroke-linejoin="round"/>
<path d="M1576.44 1421.1C1547.41 1333.05 1521.5 1271 1598.92 1206.53C1637.84 1174.17 1691.97 1168.12 1728.21 1130.37C1822.67 1031.98 1692.07 959.647 1627.1 894.474C1497.76 764.732 1549.17 623.297 1644.29 483.827C1683.1 426.87 1732.65 376.717 1766.47 316.433C1828.16 206.55 1794.29 126.861 1739.3 22.3212" stroke="black" stroke-width="1.5" stroke-linecap="round" stroke-linejoin="round"/>
<path d="M1631.88 1464.4C1599.68 1374.78 1574.83 1316.41 1653.41 1250.63C1694.03 1216.61 1750.59 1209.35 1788.59 1169.99C1891.72 1063.13 1734.76 973.409 1666.46 902.388C1525.33 756.215 1581.73 607.571 1696.2 459.23C1812.99 307.512 1904.42 229.485 1815.21 32.9068" stroke="black" stroke-width="1.5" stroke-linecap="round" stroke-linejoin="round"/>
<path d="M1691.82 1505.83C1656.03 1415.1 1631.73 1359.96 1710.97 1292.52C1752.91 1256.78 1811.78 1248.11 1850.89 1206.83C1961.33 1091.66 1779.02 985.052 1707.19 908.789C1554.97 747.494 1613.84 590.131 1749.28 435.691C1864.05 304.638 1960.07 232.963 1891.57 49.2375" stroke="black" stroke-width="1.5" stroke-linecap="round" stroke-linejoin="round"/>
<path d="M1760.37 1541.17C1720.5 1450.74 1695.45 1397.72 1774.48 1328.31C1817.02 1290.86 1877.16 1280.73 1917.13 1238.13C2032.71 1114.94 1827.71 995.284 1752.36 914.989C1589.04 741.093 1652.4 574.606 1807.04 417.092C1917.38 304.639 2016.12 239.415 1968.34 69.299" stroke="black" stroke-width="1.5" stroke-linecap="round" stroke-linejoin="round"/>
<path d="M1840.97 1565.21C1796.61 1476.55 1768.79 1425.14 1846.36 1353.51C1888.45 1314.35 1949.44 1302.8 1988.81 1258.85C2106.25 1128.35 1882.96 1002.64 1804.48 920.534C1629.57 737.766 1704.32 564.072 1872.47 405.498C1977.06 306.907 2073.74 246.572 2045.21 89.7633" stroke="black" stroke-width="1.5" stroke-linecap="round" stroke-linejoin="round"/>
<path d="M1937.35 1572.72C1888.2 1488.04 1854.58 1437.38 1929.28 1362.99C1969.61 1322.66 2030.09 1310.01 2067.7 1265.1C2182.82 1128.3 1947.78 1006.68 1866.08 925.524C1678.12 738.421 1777.16 562.61 1948.69 403.633C2047.23 312.401 2134.63 252.822 2122.38 107.808" stroke="black" stroke-width="1.5" stroke-linecap="round" stroke-linejoin="round"/>
<path d="M2053.17 1559.01C1999.49 1481.03 1956.14 1430.38 2025.35 1352.91C2061.89 1312.03 2120.82 1298.07 2154.94 1252.7C2262.35 1111.11 2023.89 1006.42 1939.91 930.111C1580.38 602.934 2232.72 439.018 2199.65 120.51" stroke="black" stroke-width="1.5" stroke-linecap="round" stroke-linejoin="round"/>
</g>
</svg>
