<svg width="294" height="402" viewBox="0 0 294 402" fill="none" xmlns="http://www.w3.org/2000/svg">
<path fill-rule="evenodd" clip-rule="evenodd" d="M90.092 326.821L0.43335 326.821C3.52647 255.742 56.1988 214.509 85.8493 200.789C56.1988 187.149 3.52653 146.153 0.433408 75.4825L88.6223 75.4825L90.0921 75.4825L115.814 75.4825L115.814 326.821L90.092 326.821Z" fill="#E9E4E5"/>
<path fill-rule="evenodd" clip-rule="evenodd" d="M106.485 66.4725L11.5245 66.4725C14.8552 142.569 71.572 186.713 103.499 201.401C71.572 216.175 14.8552 260.574 11.5246 337.11L108.068 337.11L135.765 337.11L135.765 66.4725L108.068 66.4725L106.485 66.4725Z" fill="#FFD79A"/>
<path d="M131.808 353.728L24.9773 353.728C28.8461 264.613 97.8097 214.778 131.808 201L131.808 353.728Z" fill="#F8BC61"/>
<path d="M131.808 53.811L24.9773 53.811C28.8461 142.464 97.8098 192.041 131.808 205.748L131.808 53.811Z" fill="#F8BC61"/>
<rect x="131.808" y="371.138" width="338.693" height="43.5236" transform="rotate(-90 131.808 371.138)" fill="#E06161"/>
<path d="M135.765 371.533L39.6171 371.533C43.099 270.875 105.166 214.585 135.765 199.022L135.765 371.533Z" fill="#E06161"/>
<path d="M135.369 32.4448L39.2213 32.4448C42.7032 133.103 104.771 189.394 135.369 204.957L135.369 32.4448Z" fill="#E06161"/>
<circle cx="196.302" cy="305.061" r="96.939" transform="rotate(-90 196.302 305.061)" fill="#E06161"/>
<circle cx="196.302" cy="96.9389" r="96.939" transform="rotate(-90 196.302 96.9389)" fill="#E06161"/>
<path d="M270.292 198.626L173.551 252.766L173.551 144.486L270.292 198.626Z" fill="#F8BC61"/>
<path fill-rule="evenodd" clip-rule="evenodd" d="M270.301 301.056C270.301 281.63 262.584 263 248.847 249.263L230.684 267.426C239.541 276.283 244.516 288.295 244.516 300.82C244.516 313.345 239.541 325.357 230.684 334.214C221.828 343.07 209.816 348.046 197.29 348.046C184.765 348.046 172.753 343.07 163.897 334.214L145.261 352.85C158.997 366.586 177.628 374.303 197.054 374.303C216.48 374.303 235.111 366.586 248.847 352.85C262.584 339.113 270.301 320.483 270.301 301.056Z" fill="#E9E4E5"/>
<path fill-rule="evenodd" clip-rule="evenodd" d="M197.054 22.9403C177.628 22.9403 158.997 30.6574 145.261 44.3938L163.424 62.5566C172.28 53.7 184.292 48.7245 196.818 48.7245C209.343 48.7245 221.355 53.7 230.211 62.5566C239.068 71.4132 244.044 83.4254 244.044 95.9505C244.044 108.476 239.068 120.488 230.211 129.344L248.847 147.98C262.584 134.244 270.301 115.613 270.301 96.187C270.301 76.7608 262.584 58.1302 248.847 44.3938C235.111 30.6573 216.48 22.9403 197.054 22.9403Z" fill="#E9E4E5"/>
<circle cx="195.906" cy="300.709" r="76.5079" transform="rotate(-90 195.906 300.709)" stroke="black" stroke-width="10"/>
<circle cx="195.906" cy="96.5433" r="76.5079" transform="rotate(-90 195.906 96.5433)" stroke="black" stroke-width="10"/>
<line x1="168.749" y1="226.323" x2="168.749" y2="168.555" stroke="black" stroke-width="10"/>
</svg>
