<svg width="102" height="433" viewBox="0 0 102 433" fill="none" xmlns="http://www.w3.org/2000/svg">
<path d="M84.7119 354.469C95.2227 362.469 102 375.063 102 389.229C102 413.403 82.2626 433 57.9153 433C42.8804 433 29.6035 425.527 21.6465 414.118L50.1356 414.118C69.2316 414.118 84.7119 398.748 84.7119 379.788L84.7119 354.469Z" fill="#E06161"/>
<path d="M44.0848 333.544C60.6688 333.544 72.7077 341.815 78.699 354.04L37.1695 354.04C26.1893 354.04 17.2881 362.878 17.2881 373.78C17.2881 384.682 26.1893 393.52 37.1695 393.52L76.33 393.52C71.4457 400.319 64.2064 405.715 55.7479 408.969L20.118 408.969C6.87577 402.92 -8.52429e-07 389.467 -1.55636e-06 373.363C-2.51764e-06 351.372 19.7374 333.544 44.0848 333.544Z" fill="#F8BC61"/>
<path d="M69.9306 293.189L69.9306 273.449L79.5255 273.449L79.5255 305.205L19.1899 305.205L19.1899 293.189L69.9306 293.189Z" fill="#2F3B5A"/>
<path d="M25.9323 259.718C25.9323 261.836 25.2696 263.609 23.9441 265.04C22.5611 266.413 20.8611 267.1 18.8441 267.1C16.8272 267.1 15.156 266.413 13.8306 265.04C12.4475 263.609 11.756 261.836 11.756 259.718C11.756 257.601 12.4475 255.856 13.8306 254.483C15.156 253.053 16.8272 252.337 18.8441 252.337C20.8611 252.337 22.5611 253.053 23.9441 254.483C25.2696 255.856 25.9323 257.601 25.9323 259.718ZM31.6373 253.796L79.5255 253.796L79.5255 265.812L31.6373 265.812L31.6373 253.796Z" fill="#2F3B5A"/>
<path d="M38.639 229.909C36.334 228.364 34.4611 226.247 33.0204 223.558C31.5797 220.812 30.8594 217.693 30.8594 214.203C30.8594 210.141 31.8679 206.479 33.8848 203.217C35.9018 199.899 38.7831 197.295 42.5289 195.407C46.217 193.462 50.5102 192.489 55.4085 192.489C60.3069 192.489 64.6577 193.462 68.4611 195.407C72.2069 197.295 75.117 199.899 77.1916 203.217C79.2662 206.479 80.3035 210.141 80.3035 214.203C80.3035 217.751 79.612 220.869 78.2289 223.558C76.7882 226.19 74.9442 228.307 72.6967 229.909L79.5255 229.909L79.5255 241.925L15.5594 241.925L15.5594 229.909L38.639 229.909ZM55.4085 204.762C52.5272 204.762 50.0492 205.363 47.9746 206.565C45.8424 207.709 44.2289 209.254 43.134 211.199C42.039 213.087 41.4916 215.147 41.4916 217.379C41.4916 219.553 42.0679 221.613 43.2204 223.558C44.3153 225.446 45.9289 226.991 48.0611 228.193C50.1933 229.337 52.7001 229.909 55.5814 229.909C58.4628 229.909 60.9696 229.337 63.1018 228.193C65.234 226.991 66.8764 225.446 68.0289 223.558C69.1238 221.613 69.6713 219.553 69.6713 217.379C69.6713 215.147 69.095 213.087 67.9425 211.199C66.7899 209.254 65.1475 207.709 63.0153 206.565C60.8831 205.363 58.3475 204.762 55.4085 204.762Z" fill="#2F3B5A"/>
<path d="M79.5255 132.52L79.5255 144.535L38.1204 171.742L79.5255 171.742L79.5255 183.758L19.1034 183.758L19.1034 171.742L60.595 144.535L19.1034 144.535L19.1034 132.52L79.5255 132.52Z" fill="#2F3B5A"/>
<path d="M80.3035 99.5321C80.3035 104.11 79.295 108.229 77.2781 111.891C75.2035 115.553 72.2933 118.442 68.5475 120.56C64.8018 122.619 60.4797 123.649 55.5814 123.649C50.6831 123.649 46.3611 122.591 42.6153 120.474C38.8696 118.299 35.9882 115.353 33.9712 111.634C31.8967 107.914 30.8594 103.766 30.8594 99.1888C30.8594 94.6114 31.8967 90.4632 33.9712 86.744C35.9882 83.0249 38.8695 80.1068 42.6153 77.9898C46.3611 75.8155 50.6831 74.7284 55.5814 74.7284C60.4797 74.7284 64.8018 75.8441 68.5475 78.0756C72.2933 80.2499 75.2035 83.2252 77.2781 87.0015C79.295 90.7207 80.3035 94.8975 80.3035 99.5321ZM69.7577 99.5321C69.7577 97.3579 69.2391 95.3266 68.2018 93.4385C67.1069 91.4931 65.4933 89.9482 63.3611 88.8039C61.2289 87.6595 58.6357 87.0873 55.5814 87.0873C51.0289 87.0873 47.5424 88.2889 45.1221 90.692C42.6441 93.038 41.4051 95.9274 41.4051 99.3605C41.4051 102.794 42.6441 105.683 45.1221 108.029C47.5424 110.318 51.0289 111.462 55.5814 111.462C60.134 111.462 63.6492 110.346 66.1272 108.115C68.5475 105.826 69.7577 102.965 69.7577 99.5321Z" fill="#2F3B5A"/>
<path d="M31.6373 2.96485e-05L79.5255 13.9038L79.5255 26.8636L46.0729 35.532L79.5255 44.2005L79.5255 57.246L31.6373 71.2357L31.6373 59.0484L68.1153 50.6374L31.6373 41.5399L31.6373 28.8376L68.0289 19.9116L31.6373 11.5007L31.6373 2.96485e-05Z" fill="#2F3B5A"/>
</svg>
