<svg width="121" height="28" viewBox="0 0 121 28" fill="none" xmlns="http://www.w3.org/2000/svg">
<path d="M21.9452 23.2542C19.7096 26.1395 16.1902 28 12.2317 28C5.47632 28 0 22.5819 0 15.8983C0 11.7711 2.08826 8.1264 5.27642 5.94214V13.7627C5.27642 19.0047 9.57158 23.2542 14.8699 23.2542H21.9452Z" fill="#E06167"/>
<path d="M27.7924 12.1017C27.7924 16.6542 25.4811 19.959 22.065 21.6036L22.065 10.2034C22.065 7.18923 19.5953 4.74577 16.5487 4.74576C13.5022 4.74576 11.0325 7.18923 11.0325 10.2034L11.0325 20.9533C9.13254 19.6126 7.62459 17.6253 6.71533 15.3033L6.71533 5.52259C8.40562 1.88746 12.1649 0 16.6651 0C22.8106 0 27.7924 5.41811 27.7924 12.1017Z" fill="#F8BC61"/>
<path d="M39.0695 19.1967H44.5858V21.8306H35.7118V5.26785H39.0695V19.1967Z" fill="#2F3B5A"/>
<path d="M48.4228 7.1187C47.8312 7.1187 47.3355 6.93678 46.9358 6.57294C46.5521 6.19328 46.3602 5.72661 46.3602 5.17294C46.3602 4.61926 46.5521 4.16051 46.9358 3.79666C47.3355 3.417 47.8312 3.22717 48.4228 3.22717C49.0144 3.22717 49.5021 3.417 49.8858 3.79666C50.2855 4.16051 50.4854 4.61926 50.4854 5.17294C50.4854 5.72661 50.2855 6.19328 49.8858 6.57294C49.5021 6.93678 49.0144 7.1187 48.4228 7.1187ZM50.0777 8.6848V21.8306H46.72V8.6848H50.0777Z" fill="#2F3B5A"/>
<path d="M56.7528 10.6068C57.1845 9.97407 57.7761 9.45994 58.5276 9.06446C59.2951 8.66898 60.1665 8.47124 61.1419 8.47124C62.2771 8.47124 63.3004 8.74808 64.2118 9.30175C65.1392 9.85543 65.8667 10.6464 66.3943 11.6746C66.9379 12.6871 67.2097 13.8656 67.2097 15.2102C67.2097 16.5549 66.9379 17.7492 66.3943 18.7933C65.8667 19.8215 65.1392 20.6204 64.2118 21.1899C63.3004 21.7594 62.2771 22.0441 61.1419 22.0441C60.1505 22.0441 59.2791 21.8543 58.5276 21.4746C57.7921 21.0792 57.2005 20.5729 56.7528 19.956V21.8306H53.3951V4.27124H56.7528V10.6068ZM63.7801 15.2102C63.7801 14.4193 63.6122 13.739 63.2764 13.1696C62.9566 12.5842 62.5249 12.1413 61.9813 11.8407C61.4536 11.5402 60.878 11.3899 60.2545 11.3899C59.6469 11.3899 59.0713 11.5481 58.5276 11.8645C58 12.165 57.5683 12.608 57.2325 13.1933C56.9127 13.7786 56.7528 14.4667 56.7528 15.2577C56.7528 16.0486 56.9127 16.7368 57.2325 17.3221C57.5683 17.9074 58 18.3583 58.5276 18.6746C59.0713 18.9752 59.6469 19.1255 60.2545 19.1255C60.878 19.1255 61.4536 18.9673 61.9813 18.6509C62.5249 18.3345 62.9566 17.8837 63.2764 17.2984C63.6122 16.7131 63.7801 16.017 63.7801 15.2102Z" fill="#2F3B5A"/>
<path d="M83.968 21.8306H80.6103L73.0074 10.4645V21.8306H69.6497V5.24412H73.0074L80.6103 16.634V5.24412H83.968V21.8306Z" fill="#2F3B5A"/>
<path d="M93.1862 22.0441C91.9071 22.0441 90.7558 21.7673 89.7325 21.2136C88.7092 20.6441 87.9018 19.8453 87.3102 18.817C86.7346 17.7888 86.4468 16.6023 86.4468 15.2577C86.4468 13.9131 86.7426 12.7266 87.3342 11.6984C87.9417 10.6701 88.7652 9.87915 89.8045 9.32548C90.8438 8.75599 92.003 8.47124 93.2821 8.47124C94.5613 8.47124 95.7205 8.75599 96.7598 9.32548C97.7991 9.87915 98.6145 10.6701 99.2061 11.6984C99.8137 12.7266 100.117 13.9131 100.117 15.2577C100.117 16.6023 99.8057 17.7888 99.1821 18.817C98.5745 19.8453 97.7431 20.6441 96.6878 21.2136C95.6485 21.7673 94.4813 22.0441 93.1862 22.0441ZM93.1862 19.1492C93.7938 19.1492 94.3614 19.0068 94.889 18.7221C95.4327 18.4215 95.8644 17.9786 96.1842 17.3933C96.5039 16.808 96.6638 16.0961 96.6638 15.2577C96.6638 14.008 96.3281 13.0509 95.6565 12.3865C95.001 11.7063 94.1935 11.3662 93.2342 11.3662C92.2748 11.3662 91.4674 11.7063 90.8118 12.3865C90.1722 13.0509 89.8525 14.008 89.8525 15.2577C89.8525 16.5074 90.1642 17.4724 90.7878 18.1526C91.4274 18.817 92.2268 19.1492 93.1862 19.1492Z" fill="#2F3B5A"/>
<path d="M121 8.6848L117.115 21.8306H113.493L111.071 12.6475L108.648 21.8306H105.003L101.094 8.6848H104.499L106.85 18.6984L109.392 8.6848H112.941L115.436 18.6746L117.786 8.6848H121Z" fill="#2F3B5A"/>
</svg>
